<svg width="25" height="25" viewBox="0 0 25 25" fill="none" xmlns="http://www.w3.org/2000/svg">
<path d="M23.8281 2.40234H1.17188L0 6.79688V23.6426C0 24.0469 0.328125 24.375 0.732422 24.375H24.2676C24.6719 24.375 25 24.0469 25 23.6426V6.79688L23.8281 2.40234Z" fill="#3F51B5"/>
<path d="M21.3379 14.1211H20.3361L19.0633 11.5754C18.8824 11.2136 18.4425 11.0669 18.0807 11.2479C17.7188 11.4288 17.5722 11.8687 17.7531 12.2305L18.6984 14.1211H15.1883L16.1336 12.2305C16.3145 11.8687 16.1679 11.4288 15.8061 11.2479C15.4444 11.067 15.0043 11.2136 14.8234 11.5754L13.5506 14.1211H12.5488C12.3134 14.1211 12.0923 14.2343 11.9546 14.4252C11.817 14.6162 11.7795 14.8617 11.854 15.0851L13.3188 19.4796C13.4186 19.7788 13.6984 19.9805 14.0137 19.9805H19.873C20.1883 19.9805 20.4682 19.7788 20.5679 19.4797L22.0327 15.0852C22.1071 14.8618 22.0697 14.6163 21.932 14.4253C21.7943 14.2343 21.5733 14.1211 21.3379 14.1211ZM9.61914 12.6562H3.66211C3.25762 12.6562 2.92969 12.9842 2.92969 13.3887C2.92969 13.7932 3.25762 14.1211 3.66211 14.1211H9.61914C10.0236 14.1211 10.3516 13.7932 10.3516 13.3887C10.3516 12.9842 10.0236 12.6562 9.61914 12.6562ZM9.61914 15.5859H3.66211C3.25762 15.5859 2.92969 15.9139 2.92969 16.3184C2.92969 16.7229 3.25762 17.0508 3.66211 17.0508H9.61914C10.0236 17.0508 10.3516 16.7229 10.3516 16.3184C10.3516 15.9139 10.0236 15.5859 9.61914 15.5859ZM9.61914 18.5156H3.66211C3.25762 18.5156 2.92969 18.8436 2.92969 19.248C2.92969 19.6525 3.25762 19.9805 3.66211 19.9805H9.61914C10.0236 19.9805 10.3516 19.6525 10.3516 19.248C10.3516 18.8436 10.0236 18.5156 9.61914 18.5156ZM24.2676 0.9375H0.732422C0.328125 0.9375 0 1.26563 0 1.66992V6.79688H25V1.66992C25 1.26563 24.6719 0.9375 24.2676 0.9375ZM12.5488 4.59961H3.66211C3.25762 4.59961 2.92969 4.27168 2.92969 3.86719C2.92969 3.4627 3.25762 3.13477 3.66211 3.13477H12.5488C12.9533 3.13477 13.2812 3.4627 13.2812 3.86719C13.2812 4.27168 12.9533 4.59961 12.5488 4.59961ZM15.4785 4.59961C15.074 4.59961 14.7461 4.27168 14.7461 3.86719C14.7461 3.4627 15.074 3.13477 15.4785 3.13477C15.883 3.13477 16.2109 3.4627 16.2109 3.86719C16.2109 4.27168 15.883 4.59961 15.4785 4.59961ZM18.4082 4.59961C18.0037 4.59961 17.6758 4.27168 17.6758 3.86719C17.6758 3.4627 18.0037 3.13477 18.4082 3.13477C18.8127 3.13477 19.1406 3.4627 19.1406 3.86719C19.1406 4.27168 18.8127 4.59961 18.4082 4.59961ZM21.3379 4.59961C20.9334 4.59961 20.6055 4.27168 20.6055 3.86719C20.6055 3.4627 20.9334 3.13477 21.3379 3.13477C21.7424 3.13477 22.0703 3.4627 22.0703 3.86719C22.0703 4.27168 21.7424 4.59961 21.3379 4.59961Z" fill="url(#paint0_linear)"/>
<defs>
<linearGradient id="paint0_linear" x1="12.5" y1="19.9805" x2="12.5" y2="0.9375" gradientUnits="userSpaceOnUse">
<stop stop-color="#ADDCFF"/>
<stop offset="0.5028" stop-color="#EAF6FF"/>
<stop offset="1" stop-color="#EAF6FF"/>
</linearGradient>
</defs>
</svg>
